<svg xmlns="http://www.w3.org/2000/svg" viewBox="0 0 129.6 72.8"><defs><style>.cls-1{fill:#f35a27;}.cls-2,.cls-3{fill:none;stroke-miterlimit:10;}.cls-2{stroke:#f85823;stroke-width:1.21px;}.cls-3{stroke:#a94044;stroke-width:0.5px;}</style></defs><title>7</title><g id="Capa_2" data-name="Capa 2"><g id="Capa_1-2" data-name="Capa 1"><circle class="cls-1" cx="31.01" cy="13.72" r="4.55"/><circle class="cls-1" cx="47.86" cy="13.72" r="4.55"/><circle class="cls-1" cx="64.93" cy="13.72" r="4.55"/><circle class="cls-1" cx="81.97" cy="13.72" r="4.55"/><circle class="cls-1" cx="98.67" cy="13.72" r="4.55"/><circle class="cls-1" cx="115.74" cy="13.72" r="4.55"/><circle class="cls-1" cx="31.01" cy="28.77" r="4.55"/><circle class="cls-1" cx="47.86" cy="28.77" r="4.55"/><circle class="cls-1" cx="64.93" cy="28.77" r="4.55"/><circle class="cls-1" cx="81.97" cy="28.77" r="4.55"/><circle class="cls-1" cx="98.67" cy="28.77" r="4.55"/><circle class="cls-1" cx="115.74" cy="28.77" r="4.55"/><circle class="cls-1" cx="31.01" cy="43.81" r="4.55"/><circle class="cls-1" cx="47.86" cy="43.81" r="4.55"/><circle class="cls-1" cx="64.93" cy="43.81" r="4.55"/><circle class="cls-1" cx="81.97" cy="43.81" r="4.55"/><circle class="cls-1" cx="98.67" cy="43.81" r="4.55"/><circle class="cls-1" cx="115.74" cy="43.81" r="4.55"/><circle class="cls-1" cx="31.01" cy="58.86" r="4.55"/><circle class="cls-1" cx="47.86" cy="58.86" r="4.55"/><circle class="cls-1" cx="64.93" cy="58.86" r="4.55"/><circle class="cls-1" cx="81.97" cy="58.86" r="4.55"/><circle class="cls-1" cx="98.67" cy="58.86" r="4.55"/><circle class="cls-1" cx="115.74" cy="58.86" r="4.55"/><circle class="cls-1" cx="13.52" cy="13.72" r="4.55"/><circle class="cls-1" cx="13.52" cy="28.77" r="4.55"/><circle class="cls-1" cx="13.52" cy="43.81" r="4.55"/><circle class="cls-1" cx="13.52" cy="58.86" r="4.55"/><rect class="cls-2" x="0.61" y="0.61" width="128.39" height="71.59" rx="8.84"/><rect class="cls-3" x="2.89" y="7.56" width="123.04" height="11.94" rx="5.97"/><rect class="cls-3" x="2.89" y="22.61" width="123.04" height="11.94" rx="5.97"/><rect class="cls-3" x="2.89" y="37.65" width="123.04" height="11.94" rx="5.97"/><rect class="cls-3" x="2.89" y="52.7" width="123.04" height="11.94" rx="5.97"/></g></g></svg>