<svg xmlns="http://www.w3.org/2000/svg" viewBox="0 0 112.8 58.06"><defs><style>.cls-1{fill:#f35a27;}.cls-2,.cls-3{fill:none;stroke-miterlimit:10;}.cls-2{stroke:#f85823;stroke-width:1.5px;}.cls-3{stroke:#a94044;stroke-width:0.5px;}</style></defs><title>3</title><g id="Capa_2" data-name="Capa 2"><g id="Capa_1-2" data-name="Capa 1"><circle class="cls-1" cx="31.15" cy="13.86" r="4.55"/><circle class="cls-1" cx="48" cy="13.86" r="4.55"/><circle class="cls-1" cx="65.07" cy="13.86" r="4.55"/><circle class="cls-1" cx="82.11" cy="13.86" r="4.55"/><circle class="cls-1" cx="98.81" cy="13.86" r="4.55"/><circle class="cls-1" cx="31.15" cy="28.91" r="4.55"/><circle class="cls-1" cx="48" cy="28.91" r="4.55"/><circle class="cls-1" cx="65.07" cy="28.91" r="4.55"/><circle class="cls-1" cx="82.11" cy="28.91" r="4.55"/><circle class="cls-1" cx="98.81" cy="28.91" r="4.55"/><circle class="cls-1" cx="31.15" cy="43.96" r="4.55"/><circle class="cls-1" cx="48" cy="43.96" r="4.55"/><circle class="cls-1" cx="65.07" cy="43.96" r="4.55"/><circle class="cls-1" cx="82.11" cy="43.96" r="4.55"/><circle class="cls-1" cx="98.81" cy="43.96" r="4.55"/><circle class="cls-1" cx="13.66" cy="13.86" r="4.55"/><circle class="cls-1" cx="13.66" cy="28.91" r="4.55"/><circle class="cls-1" cx="13.66" cy="43.96" r="4.55"/><rect class="cls-2" x="0.75" y="0.75" width="111.3" height="56.56" rx="8.84"/><rect class="cls-3" x="3.41" y="7.7" width="105.43" height="11.94" rx="5.97"/><rect class="cls-3" x="3.41" y="22.94" width="105.43" height="11.94" rx="5.97"/><rect class="cls-3" x="3.41" y="38.18" width="105.43" height="11.94" rx="5.97"/></g></g></svg>