<svg xmlns="http://www.w3.org/2000/svg" viewBox="0 0 148.22 72.9"><defs><style>.cls-1{fill:#a94044;}.cls-2{fill:#f35a27;}.cls-3{fill:none;stroke:#f85823;stroke-miterlimit:10;stroke-width:1.21px;}</style></defs><title>13</title><g id="Capa_2" data-name="Capa 2"><g id="Capa_1-2" data-name="Capa 1"><path class="cls-1" d="M137.62,19.79H9.67c-3.91,0-7.09-2.81-7.09-6.26S5.76,7.26,9.67,7.26h128c3.9,0,7.08,2.81,7.08,6.27S141.52,19.79,137.62,19.79ZM9.67,7.87c-3.53,0-6.4,2.54-6.4,5.66s2.87,5.66,6.4,5.66h128c3.53,0,6.4-2.54,6.4-5.66s-2.87-5.66-6.4-5.66Z"/><path class="cls-1" d="M137.62,34.84H9.67c-3.91,0-7.09-2.81-7.09-6.26s3.18-6.27,7.09-6.27h128c3.9,0,7.08,2.81,7.08,6.27S141.52,34.84,137.62,34.84ZM9.67,22.92c-3.53,0-6.4,2.53-6.4,5.66s2.87,5.66,6.4,5.66h128c3.53,0,6.4-2.54,6.4-5.66s-2.87-5.66-6.4-5.66Z"/><path class="cls-1" d="M137.62,49.89H9.67c-3.91,0-7.09-2.81-7.09-6.27s3.18-6.26,7.09-6.26h128c3.9,0,7.08,2.81,7.08,6.26S141.52,49.89,137.62,49.89ZM9.67,38c-3.53,0-6.4,2.54-6.4,5.66s2.87,5.66,6.4,5.66h128c3.53,0,6.4-2.54,6.4-5.66S141.15,38,137.62,38Z"/><path class="cls-1" d="M137.62,64.93H9.67c-3.91,0-7.09-2.81-7.09-6.26S5.76,52.4,9.67,52.4h128c3.9,0,7.08,2.81,7.08,6.27S141.52,64.93,137.62,64.93ZM9.67,53c-3.53,0-6.4,2.54-6.4,5.66s2.87,5.66,6.4,5.66h128c3.53,0,6.4-2.54,6.4-5.66S141.15,53,137.62,53Z"/><circle class="cls-2" cx="31.01" cy="13.72" r="4.55"/><circle class="cls-2" cx="47.86" cy="13.72" r="4.55"/><circle class="cls-2" cx="64.93" cy="13.72" r="4.55"/><circle class="cls-2" cx="81.97" cy="13.72" r="4.55"/><circle class="cls-2" cx="98.67" cy="13.72" r="4.55"/><circle class="cls-2" cx="115.74" cy="13.72" r="4.55"/><circle class="cls-2" cx="132.78" cy="13.72" r="4.55"/><circle class="cls-2" cx="31.01" cy="28.77" r="4.55"/><circle class="cls-2" cx="47.86" cy="28.77" r="4.55"/><circle class="cls-2" cx="64.93" cy="28.77" r="4.55"/><circle class="cls-2" cx="81.97" cy="28.77" r="4.55"/><circle class="cls-2" cx="98.67" cy="28.77" r="4.55"/><circle class="cls-2" cx="115.74" cy="28.77" r="4.55"/><circle class="cls-2" cx="132.78" cy="28.77" r="4.55"/><circle class="cls-2" cx="31.01" cy="43.81" r="4.55"/><circle class="cls-2" cx="47.86" cy="43.81" r="4.55"/><circle class="cls-2" cx="64.93" cy="43.81" r="4.55"/><circle class="cls-2" cx="81.97" cy="43.81" r="4.55"/><circle class="cls-2" cx="98.67" cy="43.81" r="4.55"/><circle class="cls-2" cx="115.74" cy="43.81" r="4.55"/><circle class="cls-2" cx="132.78" cy="43.81" r="4.55"/><circle class="cls-2" cx="31.01" cy="58.86" r="4.55"/><circle class="cls-2" cx="47.86" cy="58.86" r="4.55"/><circle class="cls-2" cx="64.93" cy="58.86" r="4.55"/><circle class="cls-2" cx="81.97" cy="58.86" r="4.55"/><circle class="cls-2" cx="98.67" cy="58.86" r="4.55"/><circle class="cls-2" cx="115.74" cy="58.86" r="4.55"/><circle class="cls-2" cx="132.78" cy="58.86" r="4.55"/><circle class="cls-2" cx="13.52" cy="13.72" r="4.55"/><circle class="cls-2" cx="13.52" cy="28.77" r="4.55"/><circle class="cls-2" cx="13.52" cy="43.81" r="4.55"/><circle class="cls-2" cx="13.52" cy="58.86" r="4.55"/><rect class="cls-3" x="0.61" y="0.61" width="147" height="71.68" rx="8.84"/></g></g></svg>