<svg xmlns="http://www.w3.org/2000/svg" viewBox="0 0 148.5 42.06"><defs><style>.cls-1{fill:#a94044;}.cls-2{fill:#f35a27;}.cls-3{fill:none;stroke:#f85823;stroke-miterlimit:10;stroke-width:1.5px;}</style></defs><title>11</title><g id="Capa_2" data-name="Capa 2"><g id="Capa_1-2" data-name="Capa 1"><path class="cls-1" d="M137.76,19.94H9.81c-3.91,0-7.09-2.81-7.09-6.27S5.9,7.41,9.81,7.41h128c3.91,0,7.09,2.81,7.09,6.26S141.67,19.94,137.76,19.94ZM9.81,8c-3.53,0-6.4,2.54-6.4,5.66s2.87,5.66,6.4,5.66h128c3.53,0,6.4-2.54,6.4-5.66S141.29,8,137.76,8Z"/><path class="cls-1" d="M137.76,35H9.81c-3.91,0-7.09-2.81-7.09-6.26s3.18-6.27,7.09-6.27h128c3.91,0,7.09,2.81,7.09,6.27S141.67,35,137.76,35ZM9.81,23.06c-3.53,0-6.4,2.54-6.4,5.66s2.87,5.66,6.4,5.66h128c3.53,0,6.4-2.54,6.4-5.66s-2.87-5.66-6.4-5.66Z"/><circle class="cls-2" cx="31.15" cy="13.86" r="4.55"/><circle class="cls-2" cx="48" cy="13.86" r="4.55"/><circle class="cls-2" cx="65.07" cy="13.86" r="4.55"/><circle class="cls-2" cx="82.11" cy="13.86" r="4.55"/><circle class="cls-2" cx="98.81" cy="13.86" r="4.55"/><circle class="cls-2" cx="115.88" cy="13.86" r="4.55"/><circle class="cls-2" cx="132.92" cy="13.86" r="4.55"/><circle class="cls-2" cx="31.15" cy="28.91" r="4.55"/><circle class="cls-2" cx="48" cy="28.91" r="4.55"/><circle class="cls-2" cx="65.07" cy="28.91" r="4.55"/><circle class="cls-2" cx="82.11" cy="28.91" r="4.55"/><circle class="cls-2" cx="98.81" cy="28.91" r="4.55"/><circle class="cls-2" cx="115.88" cy="28.91" r="4.55"/><circle class="cls-2" cx="132.92" cy="28.91" r="4.55"/><circle class="cls-2" cx="13.66" cy="13.86" r="4.55"/><circle class="cls-2" cx="13.66" cy="28.91" r="4.55"/><rect class="cls-3" x="0.75" y="0.75" width="147" height="40.56" rx="8.84"/></g></g></svg>