<svg xmlns="http://www.w3.org/2000/svg" viewBox="0 0 168.64 58.06"><defs><style>.cls-1{fill:#f85823;}.cls-2,.cls-3{fill:none;stroke-miterlimit:10;}.cls-2{stroke:#f85823;stroke-width:1.5px;}.cls-3{stroke:#a94044;stroke-width:0.5px;}.cls-4{fill:#f35a27;}</style></defs><title>4</title><g id="Capa_2" data-name="Capa 2"><g id="Capa_1-2" data-name="Capa 1"><path class="cls-1" d="M105.87,27.59H103v-2.9a1.28,1.28,0,0,0-1.28-1.28h-.31a1.28,1.28,0,0,0-1.28,1.28v2.9H97.18a1.29,1.29,0,0,0-1.28,1.28v.32a1.29,1.29,0,0,0,1.28,1.28h2.91v2.9a1.28,1.28,0,0,0,1.28,1.28h.31A1.28,1.28,0,0,0,103,33.37v-2.9h2.91a1.28,1.28,0,0,0,1.28-1.28v-.32A1.28,1.28,0,0,0,105.87,27.59Z"/><rect class="cls-2" x="0.75" y="0.75" width="81.5" height="56.56" rx="8.84"/><rect class="cls-3" x="4.62" y="7.7" width="73.76" height="11.94" rx="5.97"/><circle class="cls-4" cx="32.36" cy="13.86" r="4.55"/><circle class="cls-4" cx="49.21" cy="13.86" r="4.55"/><circle class="cls-4" cx="66.28" cy="13.86" r="4.55"/><circle class="cls-4" cx="32.36" cy="28.91" r="4.55"/><circle class="cls-4" cx="49.21" cy="28.91" r="4.55"/><circle class="cls-4" cx="66.28" cy="28.91" r="4.55"/><circle class="cls-4" cx="32.36" cy="43.96" r="4.55"/><circle class="cls-4" cx="49.21" cy="43.96" r="4.55"/><circle class="cls-4" cx="66.28" cy="43.96" r="4.55"/><circle class="cls-4" cx="14.87" cy="13.86" r="4.55"/><circle class="cls-4" cx="14.87" cy="28.91" r="4.55"/><circle class="cls-4" cx="14.87" cy="43.96" r="4.55"/><rect class="cls-3" x="4.62" y="22.94" width="73.76" height="11.94" rx="5.97"/><rect class="cls-3" x="4.62" y="38.18" width="73.76" height="11.94" rx="5.97"/><rect class="cls-2" x="120.8" y="0.75" width="47.08" height="56.56" rx="8.84"/><rect class="cls-3" x="124.67" y="7.7" width="38.74" height="11.94" rx="5.97"/><circle class="cls-4" cx="152.41" cy="13.86" r="4.55"/><circle class="cls-4" cx="152.41" cy="28.91" r="4.55"/><circle class="cls-4" cx="152.41" cy="43.96" r="4.55"/><circle class="cls-4" cx="134.92" cy="13.86" r="4.55"/><circle class="cls-4" cx="134.92" cy="28.91" r="4.55"/><circle class="cls-4" cx="134.92" cy="43.96" r="4.55"/><rect class="cls-3" x="124.67" y="22.94" width="38.74" height="11.94" rx="5.97"/><rect class="cls-3" x="124.67" y="38.18" width="38.74" height="11.94" rx="5.97"/></g></g></svg>