<svg xmlns="http://www.w3.org/2000/svg" viewBox="0 0 197.11 73.4"><defs><style>.cls-1{fill:#f85823;}.cls-2{fill:#f35a27;}.cls-3,.cls-4,.cls-5{fill:none;stroke-miterlimit:10;}.cls-3,.cls-5{stroke:#f85823;}.cls-3{stroke-width:1.21px;}.cls-4{stroke:#a94044;stroke-width:0.5px;}.cls-5{stroke-width:1.24px;}</style></defs><title>14</title><g id="Capa_2" data-name="Capa 2"><g id="Capa_1-2" data-name="Capa 1"><path class="cls-1" d="M135,34.52h-2.91V31.61a1.28,1.28,0,0,0-1.28-1.28h-.31a1.28,1.28,0,0,0-1.28,1.28v2.91h-2.91a1.28,1.28,0,0,0-1.28,1.28v.31a1.28,1.28,0,0,0,1.28,1.28h2.91V40.3a1.28,1.28,0,0,0,1.28,1.28h.31a1.28,1.28,0,0,0,1.28-1.28V37.39H135a1.28,1.28,0,0,0,1.28-1.28V35.8A1.28,1.28,0,0,0,135,34.52Z"/><circle class="cls-2" cx="31.01" cy="15.24" r="4.55"/><circle class="cls-2" cx="47.86" cy="15.24" r="4.55"/><circle class="cls-2" cx="64.93" cy="15.24" r="4.55"/><circle class="cls-2" cx="81.97" cy="15.24" r="4.55"/><circle class="cls-2" cx="31.01" cy="30.29" r="4.55"/><circle class="cls-2" cx="47.86" cy="30.29" r="4.55"/><circle class="cls-2" cx="64.93" cy="30.29" r="4.55"/><circle class="cls-2" cx="81.97" cy="30.29" r="4.55"/><circle class="cls-2" cx="31.01" cy="45.33" r="4.55"/><circle class="cls-2" cx="47.86" cy="45.33" r="4.55"/><circle class="cls-2" cx="64.93" cy="45.33" r="4.55"/><circle class="cls-2" cx="81.97" cy="45.33" r="4.55"/><circle class="cls-2" cx="31.01" cy="60.38" r="4.55"/><circle class="cls-2" cx="47.86" cy="60.38" r="4.55"/><circle class="cls-2" cx="64.93" cy="60.38" r="4.55"/><circle class="cls-2" cx="81.97" cy="60.38" r="4.55"/><circle class="cls-2" cx="98.24" cy="15.24" r="4.55"/><circle class="cls-2" cx="98.24" cy="30.29" r="4.55"/><circle class="cls-2" cx="98.24" cy="45.33" r="4.55"/><circle class="cls-2" cx="98.24" cy="60.38" r="4.55"/><circle class="cls-2" cx="13.52" cy="15.24" r="4.55"/><circle class="cls-2" cx="13.52" cy="30.29" r="4.55"/><circle class="cls-2" cx="13.52" cy="45.33" r="4.55"/><circle class="cls-2" cx="13.52" cy="60.38" r="4.55"/><rect class="cls-3" x="0.61" y="2.13" width="112.69" height="70.66" rx="8.84"/><rect class="cls-4" x="2.92" y="9.08" width="106.58" height="11.94" rx="5.97"/><rect class="cls-4" x="2.92" y="24.32" width="106.58" height="11.94" rx="5.97"/><rect class="cls-4" x="2.92" y="39.12" width="106.58" height="11.94" rx="5.97"/><rect class="cls-4" x="2.92" y="54.22" width="106.58" height="11.94" rx="5.97"/><circle class="cls-2" cx="183.52" cy="13.58" r="4.55"/><circle class="cls-2" cx="183.52" cy="28.62" r="4.55"/><circle class="cls-2" cx="183.52" cy="43.67" r="4.55"/><circle class="cls-2" cx="183.52" cy="58.72" r="4.55"/><circle class="cls-2" cx="166.03" cy="13.58" r="4.55"/><circle class="cls-2" cx="166.03" cy="28.62" r="4.55"/><circle class="cls-2" cx="166.03" cy="43.67" r="4.55"/><circle class="cls-2" cx="166.03" cy="58.72" r="4.55"/><rect class="cls-5" x="151.85" y="0.62" width="44.64" height="70.66" rx="8.84"/><rect class="cls-4" x="153.99" y="7.42" width="40.25" height="11.94" rx="5.97"/><rect class="cls-4" x="153.99" y="22.66" width="40.25" height="11.94" rx="5.97"/><rect class="cls-4" x="153.99" y="37.46" width="40.25" height="11.94" rx="5.97"/><rect class="cls-4" x="153.99" y="52.56" width="40.25" height="11.94" rx="5.97"/></g></g></svg>