<svg xmlns="http://www.w3.org/2000/svg" viewBox="0 0 198.68 121.79"><defs><style>.cls-1{fill:#f85823;}.cls-2{fill:#f35a27;}.cls-3,.cls-4{fill:none;stroke-miterlimit:10;}.cls-3{stroke:#f85823;stroke-width:1.21px;}.cls-4{stroke:#a94044;stroke-width:0.5px;}</style></defs><title>2</title><g id="Capa_2" data-name="Capa 2"><g id="Capa_1-2" data-name="Capa 1"><path class="cls-1" d="M120.38,62.38h-2.91V59.47a1.28,1.28,0,0,0-1.28-1.28h-.31a1.28,1.28,0,0,0-1.28,1.28v2.91h-2.91a1.27,1.27,0,0,0-1.28,1.27V64a1.28,1.28,0,0,0,1.28,1.28h2.91v2.91a1.27,1.27,0,0,0,1.28,1.27h.31a1.27,1.27,0,0,0,1.28-1.27V65.25h2.91A1.28,1.28,0,0,0,121.66,64v-.32A1.28,1.28,0,0,0,120.38,62.38Z"/><circle class="cls-2" cx="31.01" cy="13.72" r="4.55"/><circle class="cls-2" cx="47.86" cy="13.72" r="4.55"/><circle class="cls-2" cx="64.93" cy="13.72" r="4.55"/><circle class="cls-2" cx="81.97" cy="13.72" r="4.55"/><circle class="cls-2" cx="31.01" cy="28.77" r="4.55"/><circle class="cls-2" cx="47.86" cy="28.77" r="4.55"/><circle class="cls-2" cx="64.93" cy="28.77" r="4.55"/><circle class="cls-2" cx="81.97" cy="28.77" r="4.55"/><circle class="cls-2" cx="31.01" cy="43.81" r="4.55"/><circle class="cls-2" cx="47.86" cy="43.81" r="4.55"/><circle class="cls-2" cx="64.93" cy="43.81" r="4.55"/><circle class="cls-2" cx="81.97" cy="43.81" r="4.55"/><circle class="cls-2" cx="31.01" cy="58.86" r="4.55"/><circle class="cls-2" cx="47.86" cy="58.86" r="4.55"/><circle class="cls-2" cx="64.93" cy="58.86" r="4.55"/><circle class="cls-2" cx="81.97" cy="58.86" r="4.55"/><circle class="cls-2" cx="31.01" cy="75.12" r="4.55"/><circle class="cls-2" cx="13.52" cy="13.72" r="4.55"/><circle class="cls-2" cx="13.52" cy="28.77" r="4.55"/><circle class="cls-2" cx="13.52" cy="43.81" r="4.55"/><circle class="cls-2" cx="13.52" cy="58.86" r="4.55"/><circle class="cls-2" cx="13.52" cy="75.12" r="4.55"/><circle class="cls-2" cx="47.86" cy="75.12" r="4.55"/><circle class="cls-2" cx="64.93" cy="75.12" r="4.55"/><circle class="cls-2" cx="81.97" cy="75.12" r="4.55"/><circle class="cls-2" cx="31.01" cy="91.39" r="4.55"/><circle class="cls-2" cx="13.52" cy="91.39" r="4.55"/><circle class="cls-2" cx="47.86" cy="91.39" r="4.55"/><circle class="cls-2" cx="64.93" cy="91.39" r="4.55"/><circle class="cls-2" cx="81.97" cy="91.39" r="4.55"/><circle class="cls-2" cx="31.01" cy="107.66" r="4.55"/><circle class="cls-2" cx="13.52" cy="107.66" r="4.55"/><circle class="cls-2" cx="47.86" cy="107.66" r="4.55"/><circle class="cls-2" cx="64.93" cy="107.66" r="4.55"/><circle class="cls-2" cx="81.97" cy="107.66" r="4.55"/><rect class="cls-3" x="0.61" y="0.61" width="96.15" height="120.58" rx="8.84"/><rect class="cls-4" x="2.58" y="7.56" width="90.94" height="11.94" rx="5.97"/><rect class="cls-4" x="2.58" y="22.8" width="90.94" height="11.94" rx="5.97"/><rect class="cls-4" x="2.58" y="37.6" width="90.94" height="11.94" rx="5.97"/><rect class="cls-4" x="2.58" y="52.7" width="90.94" height="11.94" rx="5.97"/><rect class="cls-4" x="2.58" y="68.96" width="90.94" height="11.94" rx="5.97"/><rect class="cls-4" x="2.58" y="85.23" width="90.94" height="11.94" rx="5.97"/><rect class="cls-4" x="2.58" y="101.49" width="90.94" height="11.94" rx="5.97"/><rect class="cls-3" x="135.31" y="0.61" width="62.76" height="120.58" rx="8.84"/><circle class="cls-2" cx="167.01" cy="14.12" r="4.55"/><circle class="cls-2" cx="183.87" cy="14.12" r="4.55"/><circle class="cls-2" cx="167.01" cy="29.17" r="4.55"/><circle class="cls-2" cx="183.87" cy="29.17" r="4.55"/><circle class="cls-2" cx="167.01" cy="44.21" r="4.55"/><circle class="cls-2" cx="183.87" cy="44.21" r="4.55"/><circle class="cls-2" cx="167.01" cy="59.26" r="4.55"/><circle class="cls-2" cx="183.87" cy="59.26" r="4.55"/><circle class="cls-2" cx="167.01" cy="75.53" r="4.55"/><circle class="cls-2" cx="149.52" cy="14.12" r="4.55"/><circle class="cls-2" cx="149.52" cy="29.17" r="4.55"/><circle class="cls-2" cx="149.52" cy="44.21" r="4.55"/><circle class="cls-2" cx="149.52" cy="59.26" r="4.55"/><circle class="cls-2" cx="149.52" cy="75.53" r="4.55"/><circle class="cls-2" cx="183.87" cy="75.53" r="4.55"/><circle class="cls-2" cx="167.01" cy="91.79" r="4.55"/><circle class="cls-2" cx="149.52" cy="91.79" r="4.55"/><circle class="cls-2" cx="183.87" cy="91.79" r="4.55"/><circle class="cls-2" cx="167.01" cy="108.06" r="4.55"/><circle class="cls-2" cx="149.52" cy="108.06" r="4.55"/><circle class="cls-2" cx="183.87" cy="108.06" r="4.55"/><rect class="cls-4" x="138.27" y="7.96" width="56.85" height="11.94" rx="5.97"/><rect class="cls-4" x="138.27" y="23.2" width="56.85" height="11.94" rx="5.97"/><rect class="cls-4" x="138.27" y="38" width="56.85" height="11.94" rx="5.97"/><rect class="cls-4" x="138.27" y="53.1" width="56.85" height="11.94" rx="5.97"/><rect class="cls-4" x="138.27" y="69.36" width="56.85" height="11.94" rx="5.97"/><rect class="cls-4" x="138.27" y="85.63" width="56.85" height="11.94" rx="5.97"/><rect class="cls-4" x="138.27" y="101.89" width="56.85" height="11.94" rx="5.97"/></g></g></svg>