<svg xmlns="http://www.w3.org/2000/svg" viewBox="0 0 181.06 59.51"><defs><style>.cls-1{fill:#f85823;}.cls-2{fill:#f35a27;}.cls-3,.cls-4,.cls-5{fill:none;stroke-miterlimit:10;}.cls-3{stroke:#f85823;stroke-width:1.21px;}.cls-4,.cls-5{stroke:#a94044;}.cls-4{stroke-width:0.55px;}.cls-5{stroke-width:0.5px;}</style></defs><title>10</title><g id="Capa_2" data-name="Capa 2"><g id="Capa_1-2" data-name="Capa 1"><path class="cls-1" d="M69.36,27.17h-2.9V24.26A1.29,1.29,0,0,0,65.18,23h-.32a1.29,1.29,0,0,0-1.28,1.28v2.91h-2.9a1.28,1.28,0,0,0-1.28,1.28v.31A1.28,1.28,0,0,0,60.68,30h2.9V33a1.28,1.28,0,0,0,1.28,1.28h.32A1.28,1.28,0,0,0,66.46,33V30h2.9a1.28,1.28,0,0,0,1.28-1.28v-.31A1.28,1.28,0,0,0,69.36,27.17Z"/><circle class="cls-2" cx="114.61" cy="13.72" r="4.55"/><circle class="cls-2" cx="131.47" cy="13.72" r="4.55"/><circle class="cls-2" cx="148.54" cy="13.72" r="4.55"/><circle class="cls-2" cx="114.61" cy="28.77" r="4.55"/><circle class="cls-2" cx="131.47" cy="28.77" r="4.55"/><circle class="cls-2" cx="148.54" cy="28.77" r="4.55"/><circle class="cls-2" cx="114.61" cy="43.81" r="4.55"/><circle class="cls-2" cx="131.47" cy="43.81" r="4.55"/><circle class="cls-2" cx="148.54" cy="43.81" r="4.55"/><circle class="cls-2" cx="166.29" cy="13.72" r="4.55"/><circle class="cls-2" cx="166.29" cy="28.77" r="4.55"/><circle class="cls-2" cx="166.29" cy="43.81" r="4.55"/><circle class="cls-2" cx="97.12" cy="13.72" r="4.55"/><circle class="cls-2" cx="97.12" cy="28.77" r="4.55"/><circle class="cls-2" cx="97.12" cy="43.81" r="4.55"/><rect class="cls-3" x="84.21" y="0.61" width="96.24" height="56" rx="8.84"/><rect class="cls-4" x="87.01" y="7.56" width="89.91" height="11.94" rx="5.97"/><rect class="cls-4" x="87.01" y="22.61" width="89.91" height="11.94" rx="5.97"/><rect class="cls-4" x="87.01" y="37.65" width="89.91" height="11.94" rx="5.97"/><circle class="cls-2" cx="31.01" cy="14.72" r="4.55"/><circle class="cls-2" cx="31.01" cy="29.77" r="4.55"/><circle class="cls-2" cx="31.01" cy="44.81" r="4.55"/><circle class="cls-2" cx="13.52" cy="14.72" r="4.55"/><circle class="cls-2" cx="13.52" cy="29.77" r="4.55"/><circle class="cls-2" cx="13.52" cy="44.81" r="4.55"/><rect class="cls-3" x="0.61" y="1.61" width="45.22" height="57.3" rx="8.84"/><rect class="cls-5" x="2.29" y="8.56" width="41.1" height="11.94" rx="5.97"/><rect class="cls-5" x="2.29" y="23.61" width="41.1" height="11.94" rx="5.97"/><rect class="cls-5" x="2.29" y="38.65" width="41.1" height="11.94" rx="5.97"/></g></g></svg>