<svg xmlns="http://www.w3.org/2000/svg" viewBox="0 0 197.77 43.27"><defs><style>.cls-1{fill:#f85823;}.cls-2{fill:#f35a27;}.cls-3,.cls-4,.cls-5{fill:none;stroke-miterlimit:10;}.cls-3,.cls-5{stroke:#f85823;}.cls-3{stroke-width:1.21px;}.cls-4{stroke:#a94044;stroke-width:0.5px;}.cls-5{stroke-width:1.05px;}</style></defs><title>12</title><g id="Capa_2" data-name="Capa 2"><g id="Capa_1-2" data-name="Capa 1"><path class="cls-1" d="M86.07,17.22H83.16V14.31A1.28,1.28,0,0,0,81.88,13h-.32a1.28,1.28,0,0,0-1.28,1.28v2.91h-2.9A1.28,1.28,0,0,0,76.1,18.5v.31a1.28,1.28,0,0,0,1.28,1.28h2.9V23a1.29,1.29,0,0,0,1.28,1.28h.32A1.28,1.28,0,0,0,83.16,23V20.09h2.91a1.27,1.27,0,0,0,1.27-1.28V18.5A1.27,1.27,0,0,0,86.07,17.22Z"/><circle class="cls-2" cx="31.41" cy="13.72" r="4.55"/><circle class="cls-2" cx="48.27" cy="13.72" r="4.55"/><circle class="cls-2" cx="31.41" cy="28.77" r="4.55"/><circle class="cls-2" cx="48.27" cy="28.77" r="4.55"/><circle class="cls-2" cx="13.92" cy="13.72" r="4.55"/><circle class="cls-2" cx="13.92" cy="28.77" r="4.55"/><rect class="cls-3" x="0.61" y="0.61" width="61.84" height="42.06" rx="8.84"/><rect class="cls-4" x="2.28" y="7.56" width="58.48" height="11.94" rx="5.97"/><rect class="cls-4" x="2.28" y="22.8" width="58.48" height="11.94" rx="5.97"/><circle class="cls-2" cx="131.4" cy="13.91" r="4.55"/><circle class="cls-2" cx="148.25" cy="13.91" r="4.55"/><circle class="cls-2" cx="165.32" cy="13.91" r="4.55"/><circle class="cls-2" cx="131.4" cy="28.96" r="4.55"/><circle class="cls-2" cx="148.25" cy="28.96" r="4.55"/><circle class="cls-2" cx="165.32" cy="28.96" r="4.55"/><circle class="cls-2" cx="183.08" cy="13.91" r="4.55"/><circle class="cls-2" cx="183.08" cy="28.96" r="4.55"/><circle class="cls-2" cx="113.91" cy="13.91" r="4.55"/><circle class="cls-2" cx="113.91" cy="28.96" r="4.55"/><rect class="cls-5" x="101" y="0.8" width="96.24" height="41.68" rx="8.84"/><rect class="cls-4" x="103.8" y="7.75" width="89.91" height="11.94" rx="5.97"/><rect class="cls-4" x="103.8" y="22.79" width="89.91" height="11.94" rx="5.97"/></g></g></svg>