<svg xmlns="http://www.w3.org/2000/svg" viewBox="0 0 179.59 73.2"><defs><style>.cls-1{fill:#f85823;}.cls-2{fill:#f35a27;}.cls-3,.cls-4{fill:none;stroke-miterlimit:10;}.cls-3{stroke:#f85823;stroke-width:1.21px;}.cls-4{stroke:#a94044;stroke-width:0.5px;}</style></defs><title>8</title><g id="Capa_2" data-name="Capa 2"><g id="Capa_1-2" data-name="Capa 1"><path class="cls-1" d="M85.65,35H82.74V32.06a1.28,1.28,0,0,0-1.28-1.28h-.31a1.28,1.28,0,0,0-1.28,1.28V35H77a1.28,1.28,0,0,0-1.28,1.27v.32A1.28,1.28,0,0,0,77,37.84h2.91v2.91A1.27,1.27,0,0,0,81.15,42h.31a1.27,1.27,0,0,0,1.28-1.27V37.84h2.91a1.28,1.28,0,0,0,1.28-1.28v-.32A1.27,1.27,0,0,0,85.65,35Z"/><circle class="cls-2" cx="130.99" cy="13.72" r="4.55"/><circle class="cls-2" cx="147.85" cy="13.72" r="4.55"/><circle class="cls-2" cx="164.92" cy="13.72" r="4.55"/><circle class="cls-2" cx="130.99" cy="28.77" r="4.55"/><circle class="cls-2" cx="147.85" cy="28.77" r="4.55"/><circle class="cls-2" cx="164.92" cy="28.77" r="4.55"/><circle class="cls-2" cx="130.99" cy="43.81" r="4.55"/><circle class="cls-2" cx="147.85" cy="43.81" r="4.55"/><circle class="cls-2" cx="164.92" cy="43.81" r="4.55"/><circle class="cls-2" cx="130.99" cy="58.86" r="4.55"/><circle class="cls-2" cx="147.85" cy="58.86" r="4.55"/><circle class="cls-2" cx="164.92" cy="58.86" r="4.55"/><circle class="cls-2" cx="113.5" cy="13.72" r="4.55"/><circle class="cls-2" cx="113.5" cy="28.77" r="4.55"/><circle class="cls-2" cx="113.5" cy="43.81" r="4.55"/><circle class="cls-2" cx="113.5" cy="58.86" r="4.55"/><rect class="cls-3" x="100.59" y="0.61" width="78.39" height="71.59" rx="8.84"/><rect class="cls-4" x="102.87" y="7.56" width="73.23" height="11.94" rx="5.97"/><rect class="cls-4" x="102.87" y="22.61" width="73.23" height="11.94" rx="5.97"/><rect class="cls-4" x="102.87" y="37.65" width="73.23" height="11.94" rx="5.97"/><rect class="cls-4" x="102.87" y="52.7" width="73.23" height="11.94" rx="5.97"/><circle class="cls-2" cx="31.01" cy="14.12" r="4.55"/><circle class="cls-2" cx="47.86" cy="14.12" r="4.55"/><circle class="cls-2" cx="31.01" cy="29.17" r="4.55"/><circle class="cls-2" cx="47.86" cy="29.17" r="4.55"/><circle class="cls-2" cx="31.01" cy="44.21" r="4.55"/><circle class="cls-2" cx="47.86" cy="44.21" r="4.55"/><circle class="cls-2" cx="31.01" cy="59.26" r="4.55"/><circle class="cls-2" cx="47.86" cy="59.26" r="4.55"/><circle class="cls-2" cx="13.52" cy="14.12" r="4.55"/><circle class="cls-2" cx="13.52" cy="29.17" r="4.55"/><circle class="cls-2" cx="13.52" cy="44.21" r="4.55"/><circle class="cls-2" cx="13.52" cy="59.26" r="4.55"/><rect class="cls-3" x="0.61" y="1.01" width="61.41" height="71.59" rx="8.84"/><rect class="cls-4" x="2.89" y="7.96" width="55.81" height="11.94" rx="5.97"/><rect class="cls-4" x="2.89" y="23.01" width="55.81" height="11.94" rx="5.97"/><rect class="cls-4" x="2.89" y="38.05" width="55.81" height="11.94" rx="5.97"/><rect class="cls-4" x="2.89" y="53.1" width="55.81" height="11.94" rx="5.97"/></g></g></svg>