<svg xmlns="http://www.w3.org/2000/svg" viewBox="0 0 146.19 43.06"><defs><style>.cls-1{fill:#f85823;}.cls-2{fill:#f35a27;}.cls-3,.cls-4{fill:none;stroke-miterlimit:10;}.cls-3{stroke:#f85823;stroke-width:1.5px;}.cls-4{stroke:#a94044;stroke-width:0.5px;}</style></defs><title>6</title><g id="Capa_2" data-name="Capa 2"><g id="Capa_1-2" data-name="Capa 1"><path class="cls-1" d="M69,20.22H66.08V17.31A1.28,1.28,0,0,0,64.8,16h-.31a1.28,1.28,0,0,0-1.28,1.28v2.91H60.3A1.28,1.28,0,0,0,59,21.49v.32a1.28,1.28,0,0,0,1.28,1.28h2.91V26a1.27,1.27,0,0,0,1.28,1.27h.31A1.27,1.27,0,0,0,66.08,26V23.09H69a1.28,1.28,0,0,0,1.28-1.28v-.32A1.27,1.27,0,0,0,69,20.22Z"/><circle class="cls-2" cx="114.32" cy="13.86" r="4.55"/><circle class="cls-2" cx="131.18" cy="13.86" r="4.55"/><circle class="cls-2" cx="114.32" cy="28.91" r="4.55"/><circle class="cls-2" cx="131.18" cy="28.91" r="4.55"/><circle class="cls-2" cx="96.83" cy="13.86" r="4.55"/><circle class="cls-2" cx="96.83" cy="28.91" r="4.55"/><rect class="cls-3" x="83.92" y="0.75" width="61.51" height="41.56" rx="8.84"/><rect class="cls-4" x="86.19" y="7.7" width="56.55" height="11.94" rx="5.97"/><rect class="cls-4" x="86.19" y="22.94" width="56.55" height="11.94" rx="5.97"/><circle class="cls-2" cx="31.8" cy="13.86" r="4.55"/><circle class="cls-2" cx="31.8" cy="28.91" r="4.55"/><circle class="cls-2" cx="14.31" cy="13.86" r="4.55"/><circle class="cls-2" cx="14.31" cy="28.91" r="4.55"/><rect class="cls-3" x="0.75" y="0.75" width="44.62" height="41.56" rx="8.84"/><rect class="cls-4" x="4.08" y="7.7" width="37.96" height="11.94" rx="5.97"/><rect class="cls-4" x="4.08" y="22.94" width="37.96" height="11.94" rx="5.97"/></g></g></svg>