<svg xmlns="http://www.w3.org/2000/svg" viewBox="0 0 301 205.31"><defs><style>.cls-1{fill:#ffe07d;}.cls-2{fill:#19a500;}.cls-3{fill:#87560e;}.cls-4{fill:#68410e;}.cls-5{fill:#adef50;}.cls-6{fill:#f0f982;}.cls-6,.cls-7{stroke:#dddd73;stroke-width:0.5px;}.cls-11,.cls-12,.cls-18,.cls-19,.cls-20,.cls-26,.cls-6,.cls-7{stroke-miterlimit:10;}.cls-18,.cls-7{fill:none;}.cls-11,.cls-8{fill:#2d2d2d;}.cls-9{fill:#e83a3a;}.cls-10{fill:#cc2f2f;}.cls-11,.cls-12{stroke:#2d2d2d;}.cls-12{fill:#666;}.cls-13{fill:#ed4a4a;}.cls-14{fill:#6d6d6d;}.cls-15{fill:#ededed;}.cls-16{fill:#aaa;}.cls-17{fill:#7a6f6f;}.cls-18{stroke:#5b5454;}.cls-19{fill:#4c4c4c;stroke:#ededed;}.cls-20,.cls-21{fill:#21bc06;}.cls-20{stroke:#21bc06;stroke-width:2px;}.cls-22{fill:#ff0031;}.cls-23{fill:#ff5ad8;}.cls-24{fill:#fff200;}.cls-25{fill:#55f;}.cls-26{fill:#6ccc2e;stroke:#000;}</style></defs><title>6</title><g id="Layer_2" data-name="Layer 2"><g id="Full"><g id="Camino_Tierra"><polygon class="cls-1" points="29.99 135.46 0 152.78 29.99 170.09 59.98 152.78 29.99 135.46"/><polygon class="cls-1" points="60.05 118.11 30.08 135.42 60.05 152.72 90.02 135.42 60.05 118.11"/><polygon class="cls-1" points="90.02 100.81 60.05 118.11 90.02 135.42 119.99 118.11 90.02 100.81"/><polygon class="cls-1" points="119.99 83.5 90.02 100.81 119.99 118.11 149.96 100.81 119.99 83.5"/><polygon class="cls-2" points="150.01 66.18 120.02 83.5 150.01 100.82 180 83.5 150.01 66.18"/><polygon class="cls-2" points="180.06 48.84 149.64 66.33 179.75 83.5 209.72 66.19 180.06 48.84"/><polygon class="cls-2" points="210.03 31.53 180.06 48.84 209.72 66.19 240 48.84 210.03 31.53"/></g><g id="Arbol"><path class="cls-3" d="M212.69,23.22h-8.94L203.05,47l.18.2a6.69,6.69,0,0,0,10.29-.2h0Z"/><path class="cls-4" d="M208.79,23.22h4.28l.6,23.68-.16.2c-1.06,1.22-2.53,2.36-3.14,1.79a5.34,5.34,0,0,1-1.4-4.06Z"/><path class="cls-5" d="M203.2,26.05h0a9.56,9.56,0,0,0,10.32,0h0a9.56,9.56,0,0,0,2.4-13.88v0a9.56,9.56,0,0,0-15.13,0h0A9.56,9.56,0,0,0,203.2,26.05Z"/><path class="cls-5" d="M204,19h0a8,8,0,0,0,8.64,0h0a8,8,0,0,0,2-11.62l0,0a8,8,0,0,0-12.66,0h0A8,8,0,0,0,204,19Z"/><path class="cls-5" d="M205,11.39h0a6.19,6.19,0,0,0,6.68,0h0a6.18,6.18,0,0,0,1.55-9h0a6.18,6.18,0,0,0-9.78,0h0A6.17,6.17,0,0,0,205,11.39Z"/></g><g id="Paja"><path class="cls-6" d="M216.18,44.12V50.7a.11.11,0,0,0,0,.09l7.35,4.26a.14.14,0,0,0,.09,0l7.2-4.26a.1.1,0,0,0,0-.08V44.19a.09.09,0,0,0,0-.08L223.67,40a.14.14,0,0,0-.09,0l-7.35,4A.11.11,0,0,0,216.18,44.12Z"/><path class="cls-6" d="M223.54,39.89,216.39,44a.09.09,0,0,0,0,.16l7.15,4.19a.07.07,0,0,0,.09,0l7.08-4.11a.09.09,0,0,0,0-.16l-7.08-4.19A.08.08,0,0,0,223.54,39.89Z"/><line class="cls-7" x1="223.62" y1="48.38" x2="223.62" y2="55"/><path class="cls-6" d="M218.71,39.74v4.38a.06.06,0,0,0,0,.06L223.63,47a0,0,0,0,0,.07,0l4.79-2.83a.06.06,0,0,0,0-.06V39.79a.06.06,0,0,0,0-.06L223.7,37a.06.06,0,0,0-.06,0l-4.9,2.69A.06.06,0,0,0,218.71,39.74Z"/><path class="cls-6" d="M223.61,36.92l-4.76,2.74a.07.07,0,0,0,0,.11l4.76,2.79h.06l4.71-2.74a.07.07,0,0,0,0-.11l-4.71-2.79A.06.06,0,0,0,223.61,36.92Z"/><line class="cls-7" x1="223.67" y1="42.57" x2="223.67" y2="46.98"/><path class="cls-6" d="M220.8,37.41V40a0,0,0,0,0,0,0l2.86,1.66a0,0,0,0,0,0,0l2.8-1.66,0,0V37.44a.05.05,0,0,0,0,0l-2.8-1.6h0l-2.86,1.58S220.8,37.39,220.8,37.41Z"/><path class="cls-6" d="M223.66,35.76l-2.78,1.6a0,0,0,0,0,0,.07l2.78,1.62a0,0,0,0,0,0,0l2.75-1.6s0,0,0-.06l-2.75-1.63Z"/><line class="cls-7" x1="223.69" y1="39.06" x2="223.69" y2="41.64"/></g><g id="Molino"><path class="cls-8" d="M44.7,126.92c0-3.51,5.11-6.35,11.4-6.35s11.39,2.84,11.39,6.35c0,.11,0,.22,0,.33-.32,3.35-5.29,6-11.38,6C49.81,133.27,44.7,130.42,44.7,126.92Z"/><polygon class="cls-9" points="46.53 74.99 65.97 74.99 67.49 133.94 44.7 133.94 46.53 74.99"/><polygon class="cls-10" points="49.82 75.3 46.06 75.3 44.66 134.24 49.26 134.24 49.82 75.3"/><ellipse class="cls-11" cx="56.1" cy="75.57" rx="11.39" ry="6.35"/><ellipse class="cls-12" cx="56.1" cy="74.96" rx="11.39" ry="6.35"/><polyline class="cls-12" points="66.73 72.71 61.7 66.51 56.25 59.8 56.25 59.8 45.46 72.71"/><path class="cls-8" d="M67.49,134.54s-1.21,5.78-11.24,5.78c-10.63,0-11.55-5.78-11.55-5.78V127c0,7.59,22.79,7.59,22.79,0Z"/><ellipse class="cls-10" cx="65.06" cy="92.31" rx="1.52" ry="2.43"/><ellipse class="cls-13" cx="65.67" cy="92.31" rx="1.52" ry="2.43"/><ellipse class="cls-14" cx="65.96" cy="92.23" rx="0.62" ry="0.99"/><polygon class="cls-15" points="43.83 131.01 89.48 53.23 88.94 52.9 43.27 130.7 43.83 131.01"/><polygon class="cls-15" points="47.25 132.09 46.87 132.75 43.27 130.7 43.66 130.03 47.25 132.09"/><polygon class="cls-15" points="49.19 128.79 48.8 129.45 45.21 127.4 45.6 126.74 49.19 128.79"/><polygon class="cls-15" points="51.12 125.5 50.73 126.15 47.15 124.1 47.53 123.44 51.12 125.5"/><polygon class="cls-15" points="53.05 122.2 52.67 122.86 49.08 120.8 49.47 120.14 53.05 122.2"/><polygon class="cls-15" points="54.99 118.91 54.6 119.57 51.02 117.5 51.4 116.84 54.99 118.91"/><polygon class="cls-15" points="56.92 115.61 56.53 116.27 52.95 114.21 53.34 113.55 56.92 115.61"/><polygon class="cls-15" points="58.85 112.32 58.46 112.98 54.88 110.91 55.27 110.25 58.85 112.32"/><polygon class="cls-15" points="60.78 109.03 60.39 109.69 56.82 107.62 57.2 106.96 60.78 109.03"/><polygon class="cls-15" points="62.71 105.75 62.32 106.4 58.75 104.33 59.14 103.67 62.71 105.75"/><polygon class="cls-15" points="64.64 102.46 64.25 103.11 60.68 101.04 61.07 100.38 64.64 102.46"/><polygon class="cls-15" points="66.57 99.17 66.18 99.83 62.61 97.75 63 97.09 66.57 99.17"/><polygon class="cls-15" points="47.28 132.98 66.98 99.41 66.43 99.09 46.73 132.67 47.28 132.98"/><polygon class="cls-15" points="44.92 131.04 44.5 130.81 63.7 98.09 64.12 98.33 44.92 131.04"/><polygon class="cls-15" points="45.74 131.51 45.33 131.28 64.53 98.57 64.94 98.81 45.74 131.51"/><polygon class="cls-15" points="46.44 132.21 46.03 131.97 65.22 99.27 65.63 99.51 46.44 132.21"/><rect class="cls-15" x="67.33" y="82.91" width="0.76" height="4.14" transform="translate(-39.85 100.33) rotate(-59.58)"/><rect class="cls-15" x="69.26" y="79.62" width="0.76" height="4.14" transform="translate(-36.07 100.37) rotate(-59.58)"/><polygon class="cls-15" points="69.98 77.03 69.6 77.68 73.16 79.78 73.54 79.13 69.98 77.03"/><polygon class="cls-15" points="71.91 73.74 71.53 74.4 75.09 76.5 75.47 75.85 71.91 73.74"/><polygon class="cls-15" points="73.84 70.46 73.45 71.11 77.01 73.22 77.4 72.56 73.84 70.46"/><polygon class="cls-15" points="75.77 67.17 75.38 67.83 78.94 69.94 79.32 69.28 75.77 67.17"/><polygon class="cls-15" points="77.7 63.89 77.31 64.55 80.86 66.66 81.25 66.01 77.7 63.89"/><polygon class="cls-15" points="79.62 60.61 79.24 61.27 82.79 63.38 83.17 62.73 79.62 60.61"/><polygon class="cls-15" points="81.55 57.33 81.16 57.99 84.71 60.11 85.09 59.45 81.55 57.33"/><polygon class="cls-15" points="83.47 54.05 83.09 54.71 86.63 56.83 87.02 56.18 83.47 54.05"/><polygon class="cls-15" points="85.4 50.78 85.01 51.43 88.56 53.56 88.94 52.9 85.4 50.78"/><rect class="cls-15" x="56.02" y="67.12" width="38.83" height="0.64" transform="matrix(0.51, -0.86, 0.86, 0.51, -20.92, 98.33)"/><rect class="cls-15" x="59.07" y="68.7" width="37.78" height="0.48" transform="translate(-20.96 101.25) rotate(-59.57)"/><rect class="cls-15" x="58.25" y="68.21" width="37.79" height="0.48" transform="translate(-20.95 100.3) rotate(-59.57)"/><rect class="cls-15" x="57.29" y="67.95" width="37.8" height="0.48" transform="translate(-21.19 99.35) rotate(-59.58)"/><polygon class="cls-15" points="41.11 78.25 89.83 106.75 90.34 105.88 41.63 77.37 41.11 78.25"/><polygon class="cls-15" points="38.67 83.35 38.26 83.11 41.63 77.37 42.05 77.62 38.67 83.35"/><polygon class="cls-15" points="40.76 84.57 40.34 84.32 43.72 78.59 44.13 78.83 40.76 84.57"/><polygon class="cls-15" points="42.85 85.78 42.43 85.54 45.8 79.81 46.22 80.05 42.85 85.78"/><polygon class="cls-15" points="44.93 87 44.51 86.75 47.88 81.03 48.3 81.27 44.93 87"/><polygon class="cls-15" points="47.01 88.21 46.59 87.97 49.96 82.24 50.37 82.49 47.01 88.21"/><polygon class="cls-15" points="49.09 89.42 48.67 89.18 52.03 83.46 52.45 83.7 49.09 89.42"/><polygon class="cls-15" points="51.16 90.63 50.75 90.39 54.11 84.67 54.52 84.91 51.16 90.63"/><polygon class="cls-15" points="53.23 91.84 52.82 91.6 56.18 85.88 56.59 86.13 53.23 91.84"/><polygon class="cls-15" points="55.3 93.05 54.89 92.8 58.25 87.09 58.66 87.33 55.3 93.05"/><polygon class="cls-15" points="57.37 94.25 56.96 94.01 60.31 88.3 60.73 88.54 57.37 94.25"/><polygon class="cls-15" points="59.44 95.45 59.02 95.21 62.38 89.51 62.79 89.75 59.44 95.45"/><polygon class="cls-15" points="37.87 83.77 59.05 96.11 59.57 95.24 38.39 82.89 37.87 83.77"/><polygon class="cls-15" points="40.62 79.74 41.01 79.08 61.61 91.13 61.23 91.78 40.62 79.74"/><polygon class="cls-15" points="39.84 81.06 40.23 80.4 60.84 92.44 60.45 93.1 39.84 81.06"/><polygon class="cls-15" points="38.92 82.3 39.31 81.64 59.93 93.68 59.54 94.33 38.92 82.3"/><rect class="cls-15" x="68.09" y="90.72" width="6.6" height="0.48" transform="translate(-43.2 106.45) rotate(-59.57)"/><rect class="cls-15" x="70.14" y="91.92" width="6.59" height="0.48" transform="translate(-43.22 108.81) rotate(-59.57)"/><rect class="cls-15" x="72.19" y="93.13" width="6.59" height="0.47" transform="translate(-43.25 111.17) rotate(-59.57)"/><rect class="cls-15" x="74.24" y="94.33" width="6.59" height="0.47" transform="translate(-43.27 113.53) rotate(-59.57)"/><rect class="cls-15" x="76.29" y="95.53" width="6.58" height="0.47" transform="matrix(0.51, -0.86, 0.86, 0.51, -43.3, 115.88)"/><rect class="cls-15" x="78.33" y="96.72" width="6.58" height="0.47" transform="translate(-43.32 118.24) rotate(-59.57)"/><rect class="cls-15" x="80.37" y="97.92" width="6.58" height="0.47" transform="translate(-43.35 120.58) rotate(-59.57)"/><rect class="cls-15" x="82.41" y="99.11" width="6.57" height="0.47" transform="translate(-43.37 122.93) rotate(-59.57)"/><rect class="cls-15" x="84.45" y="100.31" width="6.57" height="0.47" transform="translate(-43.39 125.27) rotate(-59.57)"/><rect class="cls-15" x="86.48" y="101.5" width="6.56" height="0.47" transform="translate(-43.42 127.62) rotate(-59.57)"/><rect class="cls-15" x="88.52" y="102.69" width="6.56" height="0.47" transform="translate(-43.44 129.95) rotate(-59.57)"/><rect class="cls-15" x="82.87" y="81.82" width="1.01" height="24.13" transform="translate(-39.81 118.21) rotate(-59.56)"/><rect class="cls-15" x="80.64" y="86.18" width="0.76" height="23.5" transform="translate(-44.44 118.24) rotate(-59.6)"/><rect class="cls-15" x="81.4" y="84.87" width="0.76" height="23.5" transform="translate(-42.93 118.26) rotate(-59.6)"/><rect class="cls-15" x="82.03" y="83.48" width="0.76" height="23.5" transform="translate(-41.42 118.11) rotate(-59.6)"/><ellipse class="cls-16" cx="66.27" cy="92.23" rx="0.62" ry="0.99"/></g><g id="Casa"><polygon class="cls-9" points="189.24 70.37 160.7 55 160.7 34.51 173.14 29.38 189.24 54.27 189.24 70.37"/><polygon class="cls-9" points="211.43 42.81 191.44 55.73 191.44 71.1 211.43 58.18 211.43 42.81"/><polygon class="cls-15" points="189.24 55.73 189.24 70.37 189.98 72.57 191.44 71.1 191.44 55.73 214.36 41.35 214.36 39.15 190.34 54.27 173.87 27.19 157.04 34.51 157.04 35.97 173.14 29.38 189.24 55.73"/><polygon class="cls-15" points="211.43 42.81 211.43 58.18 191.44 70.37 189.98 72.57 189.24 70.37 160.7 55 160.7 58.66 190.13 74.2 213.63 60.65 213.63 41.77 211.43 42.81"/><polygon class="cls-17" points="173.87 27.19 190.13 54.54 214.36 39.15 197.52 12.64 191.44 14.74 157.04 34.51 173.87 27.19"/><line class="cls-18" x1="173.87" y1="27.19" x2="197.89" y2="13"/><polygon class="cls-15" points="159.23 57.93 160.7 58.66 160.7 34.51 159.23 34.51 159.23 57.93"/><rect class="cls-15" x="195.1" y="52.07" width="1.46" height="16.83"/><rect class="cls-15" x="206.81" y="45.49" width="1.46" height="16.83"/><rect class="cls-15" x="201.41" y="44.99" width="1.46" height="24.9" transform="translate(46.62 -83.89) rotate(26.4)"/><rect class="cls-15" x="201.24" y="49.23" width="1.46" height="16.11" transform="matrix(0.66, -0.76, 0.76, 0.66, 26.36, 172.34)"/><polygon class="cls-9" points="156.91 86.38 134.56 73.62 134.56 57.66 144.25 53.67 156.79 73.05 156.91 86.38"/><polygon class="cls-9" points="184.72 58.8 158.5 74.19 158.5 86.16 184.72 70.77 184.72 58.8"/><polygon class="cls-15" points="156.79 74.19 156.79 86.38 157.36 87.3 158.5 86.16 158.5 74.19 187 57.66 187 55.95 157.65 73.05 144.82 51.97 131.71 57.66 131.71 58.8 144.25 53.67 156.79 74.19"/><polygon class="cls-15" points="184.72 58.8 184.72 70.77 157.46 86.38 134.56 73.62 134.56 76.47 157.36 89.01 186.43 72.48 186.43 57.99 184.72 58.8"/><polygon class="cls-17" points="144.82 51.97 157.74 73.09 187 55.95 173.89 34.87 158.5 42.28 131.71 57.66 144.82 51.97"/><line class="cls-18" x1="144.82" y1="51.97" x2="174.18" y2="35.15"/><polygon class="cls-15" points="133.42 75.9 134.56 76.47 134.56 57.66 133.42 57.66 133.42 75.9"/><rect class="cls-15" x="161.35" y="71.34" width="1.14" height="13.11"/><rect class="cls-15" x="170.47" y="66.21" width="1.14" height="13.11"/><rect class="cls-15" x="166.27" y="65.83" width="1.14" height="19.39" transform="translate(50.98 -66.31) rotate(26.4)"/><rect class="cls-15" x="166.13" y="69.13" width="1.14" height="12.55" transform="translate(0.52 151.94) rotate(-49.07)"/><rect class="cls-15" x="172.75" y="65.07" width="1.14" height="13.11"/><rect class="cls-15" x="181.87" y="59.94" width="1.14" height="13.11"/><rect class="cls-15" x="177.67" y="59.56" width="1.14" height="19.39" transform="translate(49.38 -72.03) rotate(26.4)"/><rect class="cls-15" x="177.53" y="62.86" width="1.14" height="12.55" transform="translate(9.18 158.39) rotate(-49.07)"/><polygon class="cls-19" points="148.69 76.06 141.13 71.93 141.13 61.62 148.69 65.75 148.69 76.06"/><line class="cls-19" x1="144.57" y1="63.68" x2="144.57" y2="73.99"/><line class="cls-19" x1="141.13" y1="65.06" x2="148.69" y2="69.18"/><line class="cls-19" x1="141.13" y1="68.5" x2="148.69" y2="72.62"/></g><g id="Flores"><line class="cls-20" x1="128.52" y1="79.85" x2="128.52" y2="82.89"/><path class="cls-21" d="M126.24,79.47h0a2.28,2.28,0,0,1,2.28,2.28v0a0,0,0,0,1,0,0h0a2.28,2.28,0,0,1-2.28-2.28v0A0,0,0,0,1,126.24,79.47Z"/><path class="cls-21" d="M128.45,80.31h0a2.28,2.28,0,0,1,2.28,2.28v0a0,0,0,0,1,0,0h0a2.28,2.28,0,0,1-2.28-2.28v0A0,0,0,0,1,128.45,80.31Z" transform="translate(211.04 -48.14) rotate(90)"/><path class="cls-22" d="M128.52,80.16h0a1.66,1.66,0,0,1-1.13-2.76l1.54-1.8L130,77.47a1.78,1.78,0,0,1-1.41,2.69Z"/><line class="cls-20" x1="133.99" y1="82.59" x2="133.99" y2="85.63"/><path class="cls-21" d="M131.71,82.21h0A2.28,2.28,0,0,1,134,84.49v0a0,0,0,0,1,0,0h0a2.28,2.28,0,0,1-2.28-2.28v0A0,0,0,0,1,131.71,82.21Z"/><path class="cls-21" d="M133.92,83h0a2.28,2.28,0,0,1,2.28,2.28v0a0,0,0,0,1,0,0h0A2.28,2.28,0,0,1,133.92,83v0A0,0,0,0,1,133.92,83Z" transform="translate(219.24 -50.87) rotate(90)"/><path class="cls-23" d="M134,82.89h0a1.66,1.66,0,0,1-1.13-2.75l1.54-1.81,1.07,1.87A1.78,1.78,0,0,1,134,82.89Z"/><line class="cls-20" x1="143.41" y1="87.45" x2="143.41" y2="90.49"/><path class="cls-21" d="M141.13,87.07h0a2.28,2.28,0,0,1,2.28,2.28v0a0,0,0,0,1,0,0h0a2.28,2.28,0,0,1-2.28-2.28v0A0,0,0,0,1,141.13,87.07Z"/><path class="cls-21" d="M143.34,87.91h0a2.28,2.28,0,0,1,2.28,2.28v0a0,0,0,0,1,0,0h0a2.28,2.28,0,0,1-2.28-2.28v0A0,0,0,0,1,143.34,87.91Z" transform="translate(233.52 -55.43) rotate(90)"/><path class="cls-24" d="M143.41,87.75h0A1.66,1.66,0,0,1,142.25,85l1.54-1.8,1.07,1.87a1.78,1.78,0,0,1-1.42,2.68Z"/><line class="cls-20" x1="148.88" y1="90.18" x2="148.88" y2="93.22"/><path class="cls-21" d="M146.6,89.8h0a2.28,2.28,0,0,1,2.28,2.28v0a0,0,0,0,1,0,0h0a2.28,2.28,0,0,1-2.28-2.28v0A0,0,0,0,1,146.6,89.8Z"/><path class="cls-21" d="M148.81,90.64h0a2.28,2.28,0,0,1,2.28,2.28v0a0,0,0,0,1,0,0h0a2.28,2.28,0,0,1-2.28-2.28v0A0,0,0,0,1,148.81,90.64Z" transform="translate(241.72 -58.17) rotate(90)"/><path class="cls-25" d="M148.88,90.49h0a1.66,1.66,0,0,1-1.13-2.76l1.54-1.8,1.07,1.87a1.79,1.79,0,0,1-1.42,2.69Z"/></g><polygon class="cls-26" points="270.01 66.18 240.02 48.86 210.03 66.18 180.04 83.5 150.04 100.82 120.05 118.14 90.06 135.46 60.07 152.78 30.08 170.09 60.07 187.41 90.06 204.73 120.05 187.41 150.04 170.09 180.04 152.78 210.03 135.46 240.02 118.14 270.01 100.82 300 83.5 270.01 66.18"/><line class="cls-26" x1="58.46" y1="186.52" x2="268.4" y2="65.29"/><line class="cls-26" x1="162.49" y1="92.94" x2="222.47" y2="127.57"/><line class="cls-26" x1="121.09" y1="118.14" x2="181.07" y2="152.77"/><line class="cls-26" x1="77.96" y1="141.93" x2="137.94" y2="176.57"/><line class="cls-26" x1="200.93" y1="71.54" x2="260.91" y2="106.18"/></g></g></svg>