<svg xmlns="http://www.w3.org/2000/svg" viewBox="0 0 384.79 83.65"><defs><style>.cls-1{fill:#ffcb08;}</style></defs><title>Asset 4</title><g id="Layer_2" data-name="Layer 2"><g id="Layer_1-2" data-name="Layer 1"><polygon class="cls-1" points="384.79 41.83 337.17 0 337.17 20.16 0 20.16 0 63.49 337.17 63.49 337.17 83.65 384.79 41.83"/><path d="M56.07,39.91q0,4.44-2.42,6.8T46.7,49.06h-5v-18h5.51a8.8,8.8,0,0,1,6.51,2.33A8.77,8.77,0,0,1,56.07,39.91ZM53.85,40a7.27,7.27,0,0,0-1.76-5.3,7.06,7.06,0,0,0-5.24-1.78h-3V47.25h2.55q3.73,0,5.61-1.83A7.26,7.26,0,0,0,53.85,40Z"/><path d="M59.59,31.94a1.32,1.32,0,0,1,.35-1,1.26,1.26,0,0,1,1.7,0,1.32,1.32,0,0,1,.36,1,1.36,1.36,0,0,1-.36,1,1.23,1.23,0,0,1-1.7,0A1.39,1.39,0,0,1,59.59,31.94ZM61.8,49.06h-2V35.59h2Z"/><path d="M69.08,49.06,64,35.59h2.18l2.91,8a37.31,37.31,0,0,1,1.15,3.64h.1a26,26,0,0,1,.85-2.7q.72-2,3.23-8.93h2.19L71.46,49.06Z"/><path d="M78.57,31.94a1.32,1.32,0,0,1,.34-1,1.27,1.27,0,0,1,1.71,0,1.32,1.32,0,0,1,.36,1,1.36,1.36,0,0,1-.36,1,1.25,1.25,0,0,1-1.71,0A1.39,1.39,0,0,1,78.57,31.94Zm2.21,17.12h-2V35.59h2Z"/><path d="M94.27,47.25h-.11a4.79,4.79,0,0,1-4.22,2.06,5,5,0,0,1-4.12-1.81,8,8,0,0,1-1.46-5.14,8.1,8.1,0,0,1,1.47-5.17,5,5,0,0,1,4.11-1.84,4.9,4.9,0,0,1,4.2,2h.16l-.09-1,0-.95V29.94h2V49.06H94.54Zm-4.08.35a3.69,3.69,0,0,0,3-1.14,5.73,5.73,0,0,0,.94-3.67v-.43a6.69,6.69,0,0,0-1-4.08,3.6,3.6,0,0,0-3-1.23,3.13,3.13,0,0,0-2.75,1.4,7,7,0,0,0-1,3.94,6.62,6.62,0,0,0,1,3.89A3.19,3.19,0,0,0,90.19,47.6Z"/><path d="M100.36,31.94a1.32,1.32,0,0,1,.34-1,1.27,1.27,0,0,1,1.71,0,1.32,1.32,0,0,1,.36,1,1.36,1.36,0,0,1-.36,1,1.25,1.25,0,0,1-1.71,0A1.39,1.39,0,0,1,100.36,31.94Zm2.21,17.12h-2V35.59h2Z"/><path d="M116.06,47.25H116a4.79,4.79,0,0,1-4.22,2.06,5,5,0,0,1-4.12-1.81,8,8,0,0,1-1.46-5.14,8.1,8.1,0,0,1,1.47-5.17,5,5,0,0,1,4.11-1.84,4.9,4.9,0,0,1,4.2,2h.16l-.09-1,0-.95V29.94h2V49.06h-1.66ZM112,47.6a3.69,3.69,0,0,0,3-1.14,5.73,5.73,0,0,0,.94-3.67v-.43a6.69,6.69,0,0,0-1-4.08,3.6,3.6,0,0,0-3-1.23,3.13,3.13,0,0,0-2.75,1.4,7,7,0,0,0-.95,3.94,6.55,6.55,0,0,0,.95,3.89A3.19,3.19,0,0,0,112,47.6Z"/><path d="M134,42.31a7.48,7.48,0,0,1-1.66,5.15,5.87,5.87,0,0,1-4.59,1.85,6.16,6.16,0,0,1-3.21-.85A5.68,5.68,0,0,1,122.33,46a8.49,8.49,0,0,1-.76-3.72,7.43,7.43,0,0,1,1.65-5.13,5.82,5.82,0,0,1,4.57-1.83,5.68,5.68,0,0,1,4.49,1.88A7.39,7.39,0,0,1,134,42.31Zm-10.27,0a6.38,6.38,0,0,0,1,3.94,4.09,4.09,0,0,0,6.07,0,6.3,6.3,0,0,0,1-3.94,6.21,6.21,0,0,0-1-3.9,4.17,4.17,0,0,0-6.09,0A6.35,6.35,0,0,0,123.68,42.31Z"/><path d="M149.75,49.31A6.19,6.19,0,0,1,145,47.49a7,7,0,0,1-1.73-5.05,7.83,7.83,0,0,1,1.6-5.18,5.36,5.36,0,0,1,4.31-1.91,5.08,5.08,0,0,1,4,1.66,6.4,6.4,0,0,1,1.47,4.39v1.3h-9.28a5.33,5.33,0,0,0,1.2,3.6,4.15,4.15,0,0,0,3.2,1.23,11,11,0,0,0,4.31-.91v1.81a10.16,10.16,0,0,1-2,.67A11.1,11.1,0,0,1,149.75,49.31Zm-.55-12.26a3.35,3.35,0,0,0-2.59,1.06A4.94,4.94,0,0,0,145.47,41h7.05a4.5,4.5,0,0,0-.86-3A3.06,3.06,0,0,0,149.2,37.05Z"/><path d="M167.4,49.06V40.35a3.52,3.52,0,0,0-.75-2.46,3.06,3.06,0,0,0-2.35-.81,3.89,3.89,0,0,0-3.1,1.14,5.8,5.8,0,0,0-1,3.77v7.07h-2V35.59h1.66l.33,1.85h.1A4.16,4.16,0,0,1,162,35.89a5.75,5.75,0,0,1,2.52-.54,5.13,5.13,0,0,1,3.66,1.17,5,5,0,0,1,1.23,3.75v8.79Z"/><path d="M186.79,49.06h-2V36.26c0-1.07,0-2.08.1-3-.17.17-.37.35-.58.54s-1.19,1-2.92,2.4l-1.08-1.4,4.75-3.68h1.72Z"/></g></g></svg>