<svg xmlns="http://www.w3.org/2000/svg" viewBox="0 0 264.26 300"><defs><style>.cls-1{fill:#f05023;}</style></defs><title>flecha arr</title><g id="Capa_2" data-name="Capa 2"><g id="Capa_1-2" data-name="Capa 1"><path class="cls-1" d="M155.59,10.6l99.52,99.53a31.23,31.23,0,0,1,0,44.17h0a31.25,31.25,0,0,1-44.17,0l-47.56-47.56v162A31.23,31.23,0,0,1,132.15,300h0a31.24,31.24,0,0,1-31.24-31.23V106.7L53.32,154.3a31.25,31.25,0,0,1-44.17,0h0a31.23,31.23,0,0,1,0-44.17l99.77-99.78A31.17,31.17,0,0,1,132.15,0h0A31.19,31.19,0,0,1,155.59,10.6Z"/></g></g></svg>