<svg xmlns="http://www.w3.org/2000/svg" viewBox="0 0 264.26 300"><defs><style>.cls-1{fill:#f05023;}</style></defs><title>flecha aba</title><g id="Capa_2" data-name="Capa 2"><g id="Capa_1-2" data-name="Capa 1"><path class="cls-1" d="M108.67,289.4,9.15,189.87a31.23,31.23,0,0,1,0-44.17h0a31.25,31.25,0,0,1,44.17,0l47.56,47.56v-162A31.23,31.23,0,0,1,132.11,0h0a31.23,31.23,0,0,1,31.23,31.23V193.3l47.6-47.6a31.25,31.25,0,0,1,44.17,0h0a31.23,31.23,0,0,1,0,44.17l-99.78,99.78A31.15,31.15,0,0,1,132.11,300h0A31.17,31.17,0,0,1,108.67,289.4Z"/></g></g></svg>