<svg xmlns="http://www.w3.org/2000/svg" viewBox="0 0 300 264.26"><defs><style>.cls-1{fill:#f05023;}</style></defs><title>flecha der</title><g id="Capa_2" data-name="Capa 2"><g id="Capa_1-2" data-name="Capa 1"><path class="cls-1" d="M289.4,108.67,189.87,9.15a31.23,31.23,0,0,0-44.17,0h0a31.25,31.25,0,0,0,0,44.17l47.56,47.56h-162A31.23,31.23,0,0,0,0,132.11H0a31.23,31.23,0,0,0,31.23,31.23H193.3l-47.6,47.6a31.25,31.25,0,0,0,0,44.17h0a31.23,31.23,0,0,0,44.17,0l99.78-99.78A31.15,31.15,0,0,0,300,132.11h0A31.17,31.17,0,0,0,289.4,108.67Z"/></g></g></svg>