<svg xmlns="http://www.w3.org/2000/svg" viewBox="0 0 300 264.26"><defs><style>.cls-1{fill:#f05023;}</style></defs><title>flecha izq</title><g id="Capa_2" data-name="Capa 2"><g id="Capa_1-2" data-name="Capa 1"><path class="cls-1" d="M10.6,108.67,110.13,9.15a31.23,31.23,0,0,1,44.17,0h0a31.25,31.25,0,0,1,0,44.17l-47.56,47.56h162A31.23,31.23,0,0,1,300,132.11h0a31.23,31.23,0,0,1-31.23,31.23H106.7l47.6,47.6a31.25,31.25,0,0,1,0,44.17h0a31.23,31.23,0,0,1-44.17,0L10.35,155.33A31.15,31.15,0,0,1,0,132.11H0A31.17,31.17,0,0,1,10.6,108.67Z"/></g></g></svg>